<svg width="32" height="32" viewBox="0 0 32 32" fill="none" xmlns="http://www.w3.org/2000/svg">
<g clip-path="url(#clip0_4115_1259)">
<path d="M23.3334 8.66663H23.3467M9.33335 2.66663H22.6667C26.3486 2.66663 29.3334 5.65139 29.3334 9.33329V22.6666C29.3334 26.3485 26.3486 29.3333 22.6667 29.3333H9.33335C5.65146 29.3333 2.66669 26.3485 2.66669 22.6666V9.33329C2.66669 5.65139 5.65146 2.66663 9.33335 2.66663ZM21.3334 15.16C21.4979 16.2696 21.3084 17.4029 20.7917 18.3986C20.275 19.3944 19.4575 20.2018 18.4555 20.7062C17.4535 21.2105 16.3179 21.3861 15.2104 21.2079C14.1029 21.0296 13.0797 20.5067 12.2865 19.7135C11.4932 18.9203 10.9703 17.8971 10.7921 16.7896C10.6139 15.682 10.7894 14.5465 11.2938 13.5445C11.7981 12.5424 12.6056 11.7249 13.6013 11.2083C14.5971 10.6916 15.7304 10.5021 16.84 10.6666C17.9719 10.8345 19.0198 11.3619 19.8289 12.171C20.6381 12.9802 21.1655 14.0281 21.3334 15.16Z" stroke="#1E1E1E" stroke-width="4" stroke-linecap="round" stroke-linejoin="round"/>
</g>
<defs>
<clipPath id="clip0_4115_1259">
<rect width="32" height="32" fill="white"/>
</clipPath>
</defs>
</svg>
